<svg xmlns="http://www.w3.org/2000/svg" width="12" height="12"><path d="M11.86 3.02a.43.43 0 00-.32-.16H9.23V4.1c0 .56-.49 1.02-1.09 1.02-.59 0-1.07-.46-1.07-1.02V2.86H4.9V4.1c0 .56-.49 1.02-1.08 1.02-.6 0-1.08-.46-1.08-1.02V2.86H.44a.43.43 0 00-.33.16.47.47 0 00-.1.35l.77 7.14c.01.8.64 1.45 1.41 1.45h7.6c.77 0 1.4-.65 1.4-1.45l.78-7.13a.48.48 0 00-.1-.36z"/><path d="M3.83 4.5c.24 0 .43-.19.43-.41V1.84c0-.63.67-1.02 1.3-1.02h1.08c.65 0 1.07.4 1.07 1.02v2.25c0 .23.2.4.44.4.23 0 .43-.18.43-.4V1.84C8.58.77 7.76 0 6.64 0H5.56C4.36 0 3.4.83 3.4 1.84v2.25c0 .23.2.4.43.4z"/></svg>