<svg xmlns="http://www.w3.org/2000/svg" width="156" height="188"><g fill="#FFF"><circle cx="141.25" cy="68.88" r="14.75"/><path d="M89.11 139.54l-7.07 17.88-22.83 14.92a7.16 7.16 0 00-3.63 6.23 7.17 7.17 0 007.17 7.16 7.12 7.12 0 004.12-1.3c3.76-2.38 22.35-14.1 25.5-15.89 3.5-2 4.12-5.12 4.12-5.12l4.87-16-5.75-2.63c-5.75-2.62-6.5-5.25-6.5-5.25z"/><path d="M139.32 141.46s-1.16-3.83-4.58-5.17-18.09-7.75-18.09-7.75l15.42-25.58s3.84-9-.33-13.42-13.75-9.75-13.75-9.75h-7.52l15.8-26.8a12.03 12.03 0 00-4.25-16.43L72.63 7.45a12.03 12.03 0 00-16.43 4.24L9.14 91.52a12.04 12.04 0 004.25 16.43l49.39 29.11a12.04 12.04 0 0016.43-4.24l22.93-38.9h8.1l-14.75 26.2s-5.13 9.22-.33 14.26c4.2 4.41 12.66 6.91 12.66 6.91l17.25 6.5 5.1 31.3h.01a7.16 7.16 0 007.07 6.02 7.17 7.17 0 007.17-7.17c0-.19-.02-.37-.03-.56h.03l-5.1-35.92zM17.96 100.2a3.04 3.04 0 01-1.06-4.11l47.06-79.83a3.04 3.04 0 014.1-1.06L79.58 22l-50.1 84.99-11.52-6.8zm53.5 28.05a3.04 3.04 0 01-4.11 1.06l-30.12-17.75 50.11-85 30.11 17.76c1.4.82 1.89 2.7 1.07 4.1l-18.5 31.38h-8.78L71.32 94.22a7.16 7.16 0 00-1.23.9l-.03.01a7.14 7.14 0 00-2.35 5.31 7.17 7.17 0 007.16 7.17 7.12 7.12 0 004.15-1.33l.07-.06c.19-.13.36-.27.53-.42l9.66-7.78-17.82 30.23z"/></g><path fill="#F0C42E" d="M49.22 5.94L2.16 85.77a12.04 12.04 0 004.25 16.43l49.39 29.12a12.04 12.04 0 0016.43-4.24l47.05-79.83a12.03 12.03 0 00-4.24-16.44L65.65 1.7a12.04 12.04 0 00-16.43 4.24zm-39.3 84.4l47.05-79.83a3.04 3.04 0 014.11-1.06l11.52 6.8-50.1 85-11.53-6.8a3.04 3.04 0 01-1.06-4.1zm101.61-47.66L64.47 122.5a3.04 3.04 0 01-4.1 1.07L30.25 105.8l50.1-85 30.12 17.76c1.4.82 1.89 2.7 1.06 4.1z"/><g fill="#3A3A3A"><circle cx="135.25" cy="63.08" r="14.75"/><path d="M81.88 133.75l-7.08 17.88-22.82 14.91a7.16 7.16 0 00-3.64 6.23 7.17 7.17 0 007.17 7.17 7.12 7.12 0 004.12-1.31c3.76-2.37 22.35-14.09 25.5-15.88 3.5-2 4.12-5.13 4.12-5.13l4.88-16-5.75-2.62c-5.75-2.63-6.5-5.25-6.5-5.25zm50.2 1.92s-1.16-3.84-4.58-5.17-18.08-7.75-18.08-7.75l15.41-25.58s3.84-9-.33-13.42S110.75 74 110.75 74H84L64.08 88.43a7.2 7.2 0 00-1.23.89l-.03.02a7.14 7.14 0 00-2.35 5.3 7.17 7.17 0 007.17 7.17 7.12 7.12 0 004.14-1.33l.08-.05.52-.43 14.75-11.88H103l-14.75 26.21s-5.13 9.22-.33 14.25c4.2 4.42 12.66 6.92 12.66 6.92l17.25 6.5 5.1 31.29h.01a7.16 7.16 0 007.07 6.02 7.17 7.17 0 007.17-7.17l-.03-.56h.03l-5.1-35.91z"/></g></svg>