<svg xmlns="http://www.w3.org/2000/svg" width="136" height="164"><path d="M93.13 38.77c8.12 0 14.95-5.54 16.9-13.05l5.47.81a2.16 2.16 0 002.45-1.81 2.16 2.16 0 00-1.82-2.45l-5.54-.83v-.14-.54s-.46-6.52-1.08-9.24c-.62-2.72-2.54-3.3-2.54-3.3C97.2 6.03 87.2 5.8 84.6 5.8s-3.16 1.33-3.16 1.33l-3.15 5-.23.36-.02.05a17.39 17.39 0 00-2.37 8.77c0 9.65 7.82 17.47 17.46 17.47zm38.4 39.3l-26.74-2.16-9.24-21.12s-.46-2.77-6.01-8.47c-5.55-5.7-16.8-3.4-16.8-3.4S48.85 47.4 41 49.26c-7.86 1.85-8.17 9.86-8.17 9.86l-.63 4.52-15.18-2.94a3.01 3.01 0 00-3.52 2.37L6.1 101.3a3 3 0 002.38 3.52l51.2 9.92.34.04c-.73.1-1.3-.04-1.3-.04l-9.4-1.85-3.07 17.1-23.56 20.37a7.43 7.43 0 109.85 11.08s27.73-22.04 29.58-23.59c1.85-1.54 2.77-3.85 2.77-3.85s4.54-13.95 5.78-16.87c.85-2 4.93-1.08 4.93-1.08l22.89 8.63 7.61 29.06c.08.63.24 1.24.47 1.8a7.43 7.43 0 0014.12-4.5c-.84-4.97-4.6-27.05-5.56-31.83-1.08-5.4-4.62-6.94-4.62-6.94s-21.27-11.55-22.66-12.33c-1.38-.77-1.07-2.77-1.07-2.77l3.93-14.33 2.77 5.86s1.62 3.27 4.08 3.39l33.36.82a7.43 7.43 0 007.43-7.43 7.43 7.43 0 00-6.8-7.4zM60.1 62.82l-1.79 5.88 9.9 1.92L48 66.69l.55-2.5 11.55-1.38zm-2.25 45.47l-45.3-8.78 6.27-32.35 12.54 2.43-1.62 11.56-.64 4.41v.08l-.03.13a7.43 7.43 0 007.37 8.38 7.43 7.43 0 007.37-8.37l2.9-13.22 17.42 3.37-6.28 32.36zm-32.8-91.27h38.03a2 2 0 002-2 2 2 0 00-2-1.98H25.05a2 2 0 00-2 1.99 2 2 0 002 1.99zm13.03 6.01a2 2 0 00-2 2 2 2 0 002 1.98h22.96a2 2 0 002-1.99 2 2 0 00-2-1.99H38.08z" fill="#FFF"/><path fill="#3A3A3A" d="M87.1 32.73c8.12 0 14.94-5.54 16.9-13.05l5.46.82a2.16 2.16 0 002.46-1.82 2.16 2.16 0 00-1.82-2.45l-5.54-.82v-.14l-.01-.54s-.45-6.52-1.08-9.24c-.62-2.72-2.53-3.3-2.53-3.3C91.17-.02 81.17-.25 78.56-.25S75.41 1.1 75.41 1.1l-3.15 5-.01-.01-.22.37-.03.04a17.39 17.39 0 00-2.37 8.78c0 9.64 7.82 17.46 17.47 17.46zm38.4 39.31l-26.74-2.17-9.25-21.11s-.46-2.77-6-8.48c-5.56-5.7-16.8-3.39-16.8-3.39s-23.9 4.47-31.75 6.32c-7.86 1.85-8.17 9.86-8.17 9.86l-3.08 22.04-.64 4.4-.01.09-.02.12a7.43 7.43 0 007.37 8.38 7.43 7.43 0 007.37-8.36l4.73-21.58 11.56-1.39-1.8 5.88 9.9 1.92a3.01 3.01 0 012.38 3.52l-7.41 38.24a3.01 3.01 0 01-2.95 2.43l-.22-.02c-.73.1-1.29-.04-1.29-.04l-9.4-1.84-3.08 17.1-23.56 20.36a7.43 7.43 0 109.86 11.09s27.72-22.05 29.57-23.6c1.85-1.53 2.77-3.84 2.77-3.84s4.55-13.95 5.78-16.88c.85-2 4.94-1.08 4.94-1.08l22.88 8.63 7.62 29.07c.08.63.24 1.23.47 1.8a7.43 7.43 0 0014.11-4.51c-.84-4.97-4.6-27.05-5.56-31.83-1.08-5.4-4.62-6.93-4.62-6.93S83.19 94.68 81.81 93.9c-1.39-.77-1.08-2.77-1.08-2.77l3.93-14.34 2.77 5.86s1.62 3.27 4.09 3.4l33.35.81a7.43 7.43 0 00.63-14.83z"/><path fill="#F0C42E" d="M53.97 108.74l.22.02c1.41 0 2.67-1 2.95-2.43l7.41-38.24a3.01 3.01 0 00-2.37-3.52l-20.22-3.92-1.28 5.86 17.41 3.38-6.27 32.35-45.3-8.78 6.27-32.35 12.54 2.43.83-5.95-15.18-2.94a3.01 3.01 0 00-3.51 2.37L.05 95.27a3 3 0 002.38 3.51l51.2 9.93c.11.02.22.02.34.03z"/><path fill="#F0C52E" d="M59.04 8.98a2 2 0 01-2 2H19.02a2 2 0 01-2-2 2 2 0 012-1.99h38.02a2 2 0 012 2zm-2.04 10a2 2 0 01-2 1.99H32.04a2 2 0 01-2-1.99 2 2 0 012-1.99H55a2 2 0 012 1.99z"/></svg>