<svg xmlns="http://www.w3.org/2000/svg" width="86" height="117"><path d="M82.82 4.01H3.33A3.19 3.19 0 00.14 7.2V53.6a3.19 3.19 0 003.19 3.2h79.5A3.19 3.19 0 0086 53.6V7.2A3.19 3.19 0 0082.82 4zM8.4 37.24h-.22a3.19 3.19 0 01-3.2-3.2v-7.28a3.19 3.19 0 013.2-3.18h.22v13.66zM69.62 52.4H13.34v-44h56.28v44zm8.78-17.86a4.15 4.15 0 110-8.3 4.15 4.15 0 110 8.3zM31.5 0h23.15v2.76H31.5zm15.1 64.86V61.9h8.05v-2.76H31.5v2.76h8.04v35.24a6.07 6.07 0 00-3.63 5.56V117h14.33v-14.3a6.06 6.06 0 00-3.63-5.56v-28h4.8l5.04 1.22v-6.71l-5.05 1.21h-4.8z" fill="#363636"/></svg>