<svg xmlns="http://www.w3.org/2000/svg" width="56" height="98"><path d="M54.5 32.2h-1.52v-4.64a9.16 9.16 0 00-9.08-9.19H9.08c-5 0-9.08 4.13-9.08 9.19v42.87a9.16 9.16 0 009.08 9.18H43.9c5 0 9.08-4.13 9.08-9.19v-3.41h1.51a.76.76 0 00.76-.76V52.47a.77.77 0 00-.76-.77h-1.51v-8.79h1.51c.84 0 1.52-.68 1.52-1.53v-7.65a1.53 1.53 0 00-1.52-1.53zm-20.42-3.11c2.93 0 5.3 2.4 5.3 5.36s-2.37 5.35-5.3 5.35-5.3-2.4-5.3-5.35 2.38-5.36 5.3-5.36zm-15.13 0c2.92 0 5.3 2.4 5.3 5.36s-2.38 5.35-5.3 5.35c-2.93 0-5.3-2.4-5.3-5.35s2.37-5.36 5.3-5.36zM5.3 49.39a5.33 5.33 0 015.3-5.35c2.92 0 5.3 2.4 5.3 5.36a5.33 5.33 0 01-5.3 5.35c-2.93 0-5.3-2.4-5.3-5.35zm13.64 19.5c-2.92 0-5.3-2.4-5.3-5.35s2.38-5.36 5.3-5.36c2.93 0 5.3 2.4 5.3 5.36s-2.37 5.35-5.3 5.35zm1.5-19.9c0-3.38 2.7-6.12 6.05-6.12s6.05 2.74 6.05 6.12-2.7 6.13-6.05 6.13a6.1 6.1 0 01-6.05-6.13zm13.64 19.9c-2.92 0-5.3-2.4-5.3-5.35s2.38-5.36 5.3-5.36 5.3 2.4 5.3 5.36-2.37 5.35-5.3 5.35zm8.3-14.13c-2.92 0-5.3-2.4-5.3-5.36a5.33 5.33 0 015.3-5.36c2.93 0 5.3 2.4 5.3 5.36a5.33 5.33 0 01-5.3 5.36zM9.65 15.3h33.68c.85 0 1.44-.68 1.3-1.51l-1.6-10.77A3.68 3.68 0 0039.5 0H13.47a3.68 3.68 0 00-3.51 3.03L8.34 13.8c-.12.83.46 1.51 1.3 1.51zm33.68 67.36H9.65c-.85 0-1.43.68-1.3 1.52l1.6 10.76a3.68 3.68 0 003.52 3.03h26.04a3.68 3.68 0 003.51-3.02l1.62-10.77a1.28 1.28 0 00-1.3-1.52z" fill="#363636"/></svg>